<?xml version="1.0" encoding="utf-8"?>
<svg id="master-artboard" viewBox="0 0 1400 980" version="1.1" xmlns="http://www.w3.org/2000/svg" x="0px" y="0px" style="enable-background:new 0 0 1400 980;" width="1400px" height="980px"><defs><style id="ee-google-fonts">@import url(https://fonts.googleapis.com/css?family=Fjalla+One:400|Roboto:100,100italic,300,300italic,400,400italic,500,500italic,700,700italic,900,900italic);</style></defs>











































<g transform="matrix(0.9999999999999999, 0, 0, 0.9999999999999999, 1.8189894035458565e-12, 4.547473508864641e-13)">
		<path class="st13" d="M448.4,599.9" style="fill: rgb(223, 243, 251);"/>
	</g>





















































<g transform="matrix(1, 0, 0, 1, -0.0000060169313655933365, 0.000024500646759406663)"><path d="M 0 0 H 0 V 0 H 0 V 0 Z" id="backgroundrect" fill="none" stroke="none"/><rect id="ee-background" x="0" y="0" width="1400" height="980" style="fill: rgb(255, 255, 255); fill-opacity: 1;"/><g class="currentLayer" style=""><title>Layer 1</title><path d="M754.86259,167.58677C754.86259,167.58677 801.11177,267.90723 672.55271,385.99513C543.99365,504.08303 558.53004,556.40877 562.06087,573.99729C565.5917,591.58582 567.16052,659.64956 648.92932,677.62069C730.69811,695.59182 768.53837,665.80394 772.7999,603.87364C774.69413,576.34581 767.29479,526.51565 726.8431,511.0301C686.3914,495.54455 640.46682,520.00272 636.50203,564.80151C632.53723,609.60031 666.77,639.81596 666.77,639.81596C666.77,639.81596 617.01908,611.88896 608.90116,563.86546C600.78324,515.84196 658.58128,467.16728 706.07316,470.8322C753.56504,474.49711 794.36527,509.52501 803.35087,558.04716C812.33646,606.56932 787.35203,657.30101 743.4921,680.9066C699.63218,704.51219 607.46519,702.71501 563.43583,639.81596C519.40647,576.91691 539.07556,478.03446 567.22874,440.12896C595.38192,402.22345 654.19022,355.87159 693.72678,313.63932C733.26334,271.40706 746.19377,222.55553 742.05247,207.72202C737.91117,192.88851 728.39373,165.54547 706.91891,173.96791C685.44408,182.39034 657.28643,267.26515 666.77,320.82777C676.25357,374.39039 708.10368,567.93126 711.69791,590.39524C715.29215,612.85923 738.6547,760.22276 740.45182,776.39683C742.24894,792.5709 745.53239,847.41685 688.92319,868.08372C632.314,888.75059 596.93491,854.3715 588.30314,840.1945C579.67136,826.0175 571.97501,786.28105 595.43919,768.5529C618.90336,750.82475 655.50114,759.25645 662.62186,781.78819C669.74259,804.31993 658.95994,827.71629 645.17075,835.76945C631.38157,843.82261 619.1464,847.38298 619.1464,847.38298C619.1464,847.38298 651.70365,868.04972 676.86332,859.96275C702.02299,851.87577 738.30997,836.25554 731.5001,779.05864C724.69022,721.86174 696.69938,576.91697 691.30802,540.07603C685.91666,503.23509 657.78446,334.58311 655.08878,314.81483C652.3931,295.04655 651.14982,231.31665 660.13541,194.47575C669.12101,157.63485 701.33353,114.7471 716.6768,114.43629C732.02006,114.12548 746.63419,137.57789 754.86259,167.58677z" style="fill: rgb(255, 255, 255); fill-opacity: 0; stroke: rgb(0, 0, 0); stroke-opacity: 1; stroke-width: 3; paint-order: fill;" id="svg_3" class="selected"/></g></g></svg>