<?xml version="1.0" encoding="utf-8"?>
<svg id="master-artboard" viewBox="0 0 1400 980" version="1.1" xmlns="http://www.w3.org/2000/svg" x="0px" y="0px" style="enable-background:new 0 0 1400 980;" width="1400px" height="980px"><rect id="ee-background" x="0" y="0" width="1400" height="980" style="fill: rgb(255, 255, 255); fill-opacity: 1; pointer-events: none;"/><defs><style id="ee-google-fonts">@import url(https://fonts.googleapis.com/css?family=Fjalla+One:400|Roboto:100,100italic,300,300italic,400,400italic,500,500italic,700,700italic,900,900italic);</style></defs>











































<g transform="matrix(0.9999999999999999, 0, 0, 0.9999999999999999, 1.8189894035458565e-12, 4.547473508864641e-13)">
		<path class="st13" d="M448.4,599.9" style="fill: rgb(223, 243, 251);"/>
	</g>





















































<path d="M 757.7197265625 164.158203125 C 757.7197265625 164.158203125 809.80224609375 288.64532470703125 680.4098510742188 400.0665588378906 C 551.0174560546875 511.48779296875 559.7205200195312 533.8135375976562 560.7513427734375 555.5687255859375 C 561.7821655273438 577.3239135742188 571.684326171875 657.0543212890625 653.453125 675.0254516601562 C 735.221923828125 692.99658203125 771.3955078125 662.3753662109375 775.6570434570312 600.445068359375 C 777.55126953125 572.917236328125 764.31860301399 518.9204069581587 725.5335693359375 510.1015319824219 C 683.7760620117188 500.6067810058594 643.1362692984551 524.6429540240375 642.6925048828125 555.5396118164062 C 642.06103515625 599.5050659179688 669.6271362304688 636.3873901367188 669.6271362304688 636.3873901367188 C 669.6271362304688 636.3873901367188 619.876220703125 608.4603881835938 611.75830078125 560.4368896484375 C 603.640380859375 512.4133911132812 665.4384155273438 469.73870849609375 712.9302978515625 473.40362548828125 C 760.4221801757812 477.06854248046875 797.222412109375 506.096435546875 806.2080078125 554.6185913085938 C 815.193603515625 603.1407470703125 790.2091674804688 653.8724365234375 746.3492431640625 677.47802734375 C 702.4893188476562 701.0836181640625 610.3223266601562 699.2864379882812 566.29296875 636.3873901367188 C 522.2636108398438 573.4883422851562 524.7898559570312 490.60589599609375 561.8001708984375 432.4146728515625 C 598.8104858398438 374.22344970703125 657.04736328125 352.4430236816406 696.5839233398438 310.21075439453125 C 736.1204833984375 267.9784851074219 755.3009033203125 223.2936248779297 749.9096069335938 202.6267852783203 C 744.518310546875 181.95994567871094 737.9175415039062 167.6168975830078 711.859375 178.12266540527344 C 685.8012084960938 188.62843322753906 663.0602416992188 276.3365783691406 669.6271362304688 317.3992004394531 C 676.1940307617188 358.4618225097656 710.9608154296875 564.502685546875 714.5550537109375 586.9666748046875 C 718.1492919921875 609.4306640625 741.5118408203125 756.794189453125 743.3089599609375 772.96826171875 C 745.1060791015625 789.142333984375 748.3895263671875 843.98828125 691.7803344726562 864.6551513671875 C 635.171142578125 885.322021484375 599.7920532226562 850.9429321289062 591.1602783203125 836.7659301757812 C 582.5285034179688 822.5889282226562 574.8321533203125 782.8524780273438 598.2963256835938 765.1243286132812 C 621.760498046875 747.3961791992188 658.3582763671875 755.827880859375 665.47900390625 778.359619140625 C 672.5997314453125 800.891357421875 661.8170776367188 824.2877197265625 648.0278930664062 832.3408813476562 C 634.2387084960938 840.39404296875 622.0035400390625 843.9544067382812 622.0035400390625 843.9544067382812 C 622.0035400390625 843.9544067382812 654.560791015625 864.6211547851562 679.720458984375 856.5341796875 C 704.880126953125 848.4472045898438 741.1671142578125 832.8269653320312 734.3572387695312 775.6300659179688 C 727.54736328125 718.4331665039062 699.5565185546875 573.4884033203125 694.1651611328125 536.6474609375 C 688.7738037109375 499.8065185546875 660.6416015625 331.154541015625 657.9459228515625 311.3862609863281 C 655.250244140625 291.61798095703125 654.0069580078125 227.88807678222656 662.9925537109375 191.04718017578125 C 671.9781494140625 154.20628356933594 704.190673828125 111.31852722167969 719.533935546875 111.00772094726562 C 734.877197265625 110.69691467285156 749.4913330078125 134.14932250976562 757.7197265625 164.158203125 Z" style="fill: rgb(255, 255, 255); fill-opacity: 0; stroke: rgb(0, 0, 0); stroke-opacity: 1; stroke-width: 3; paint-order: fill;"/></svg>